<?xml version="1.0" standalone="no"?>
<!DOCTYPE svg PUBLIC "-//W3C//DTD SVG 20010904//EN"
 "http://www.w3.org/TR/2001/REC-SVG-20010904/DTD/svg10.dtd">
<svg version="1.0" xmlns="http://www.w3.org/2000/svg"
 width="62.000000pt" height="50.000000pt" viewBox="0 0 62.000000 50.000000"
 preserveAspectRatio="xMidYMid meet">

<g transform="translate(0.000000,50.000000) scale(0.100000,-0.100000)"
fill="#000000" stroke="none">
<path d="M0 250 l0 -250 310 0 310 0 0 250 0 250 -310 0 -310 0 0 -250z m498
137 c28 -9 38 -18 40 -38 4 -33 -30 -51 -89 -47 l-44 3 40 14 c67 23 66 34 -2
29 -62 -4 -174 -51 -177 -73 -1 -5 29 -13 66 -16 103 -9 126 -42 64 -96 -44
-39 -146 -67 -212 -59 -27 4 -61 6 -76 7 -60 0 -23 75 86 178 31 29 56 54 54
56 -2 1 -34 -1 -73 -6 -57 -6 -73 -4 -88 9 -26 23 -9 32 89 47 99 15 264 11
322 -8z"/>
<path d="M181 211 c-23 -27 -41 -52 -41 -56 0 -4 14 -5 30 -1 20 4 29 2 25 -5
-11 -17 131 22 173 47 37 24 25 34 -41 34 -39 0 -70 6 -84 15 -20 14 -23 12
-62 -34z"/>
</g>
</svg>
